# xmcd CD database file
#
# Track frame offsets:
#	150
#	110536
#	122307
#	216713
#
# Disc length: 4135 seconds
#
# Revision: 0
# Processed by: cddbd v1.5.2PL0 Copyright (c) Steve Scherf et al.
# Submitted via: CDex 1.60beta1-cs1
#
DISCID=36102504
DTITLE=Johnny Griffin - Live in Cologne 1973
DYEAR=1900
DGENRE=Jazz
TTITLE0=HUsh-a-Bye
TTITLE1=Wee
TTITLE2=The Jamfs are Coming
TTITLE3=These Foolish Things
EXTD=
EXTT0=
EXTT1=
EXTT2=
EXTT3=
PLAYORDER=
